<svg width="1680" height="960" viewBox="0 0 1680 960" fill="none" xmlns="http://www.w3.org/2000/svg">
<path d="M0 0H1680V960H0V0Z" fill="#E5E5E5"/>
<path d="M0.5 959.138V0.86159L838.992 480L0.5 959.138ZM1.88282 959.5L840 480.576L1678.12 959.5H1.88282ZM1679.5 959.138L841.008 480L1679.5 0.861577V959.138ZM1678.12 0.5L840 479.424L1.88278 0.5H1678.12Z" stroke="black" stroke-opacity="0.3"/>
<circle cx="840" cy="480" r="66" fill="#18A0FB"/>
<path d="M864.5 476.902C866.5 478.057 866.5 480.943 864.5 482.098L829.25 502.45C827.25 503.604 824.75 502.161 824.75 499.852V459.148C824.75 456.839 827.25 455.396 829.25 456.55L864.5 476.902Z" fill="white"/>
</svg>

