<svg width="296" height="211" viewBox="0 0 296 211" fill="none" xmlns="http://www.w3.org/2000/svg">
<path d="M0 0H296V211H0V0Z" fill="#E5E5E5"/>
<path d="M0.5 210.03V0.97045L147.139 105.5L0.5 210.03ZM1.56282 210.5L148 106.114L294.437 210.5H1.56282ZM295.5 210.03L148.861 105.5L295.5 0.970446V210.03ZM294.437 0.5L148 104.886L1.56281 0.5H294.437Z" stroke="black" stroke-opacity="0.3"/>
<circle cx="148" cy="106" r="35" fill="#18A0FB"/>
<path d="M158.879 103.137C160.879 104.291 160.879 107.178 158.879 108.333L144.413 116.685C142.413 117.839 139.913 116.396 139.913 114.087V97.3829C139.913 95.0735 142.413 93.6301 144.413 94.7848L158.879 103.137Z" fill="white"/>
</svg>


