<svg width="1680" height="930" viewBox="0 0 1680 930" fill="none" xmlns="http://www.w3.org/2000/svg">
<path d="M0 0H1680V930H0V0Z" fill="#E5E5E5"/>
<path d="M0.5 929.152V0.848284L838.968 465L0.5 929.152ZM1.9356 929.5L840 465.572L1678.06 929.5H1.9356ZM1679.5 929.152L841.032 465L1679.5 0.8483V929.152ZM1678.06 0.5L840 464.428L1.93561 0.5H1678.06Z" stroke="black" stroke-opacity="0.3"/>
<circle cx="840" cy="480" r="66" fill="#18A0FB"/>
<path d="M864.5 476.902C866.5 478.057 866.5 480.943 864.5 482.098L829.25 502.45C827.25 503.604 824.75 502.161 824.75 499.852V459.148C824.75 456.839 827.25 455.396 829.25 456.55L864.5 476.902Z" fill="white"/>
</svg>
