<svg width="750" height="440" viewBox="0 0 750 440" fill="none" xmlns="http://www.w3.org/2000/svg">
<path d="M0 0H750V440H0V0Z" fill="#E5E5E5"/>
<path d="M0.5 439.127V0.873027L374.012 220L0.5 439.127ZM1.84041 439.5L375 220.58L748.16 439.5H1.84041ZM749.5 439.127L375.988 220L749.5 0.873017V439.127ZM748.16 0.5L375 219.42L1.84039 0.5H748.16Z" stroke="black" stroke-opacity="0.3"/>
<circle cx="375" cy="220" r="66" fill="#18A0FB"/>
<path d="M399.5 216.902C401.5 218.057 401.5 220.943 399.5 222.098L364.25 242.45C362.25 243.604 359.75 242.161 359.75 239.852V199.148C359.75 196.839 362.25 195.396 364.25 196.55L399.5 216.902Z" fill="white"/>
</svg>

