<svg width="200" height="200" viewBox="0 0 200 200" fill="none" xmlns="http://www.w3.org/2000/svg">
<path d="M200 100C200 127.614 188.807 152.614 170.711 170.711C152.614 188.807 127.614 200 100 200C72.3858 200 47.3858 188.807 29.2893 170.711C11.1929 152.614 0 127.614 0 100C0 72.3858 11.1929 47.3858 29.2893 29.2893C47.3858 11.1929 72.3858 0 100 0C127.614 0 152.614 11.1929 170.711 29.2893C188.807 47.3858 200 72.3858 200 100Z" fill="#E5E5E5"/>
<path d="M199.5 100C199.5 127.476 188.364 152.351 170.357 170.357C152.351 188.364 127.476 199.5 100 199.5C72.5237 199.5 47.6494 188.364 29.6429 170.357C11.6364 152.351 0.5 127.476 0.5 100C0.5 72.5237 11.6364 47.6494 29.6429 29.6429C47.6494 11.6364 72.5237 0.5 100 0.5C127.476 0.5 152.351 11.6364 170.357 29.6429C188.364 47.6494 199.5 72.5237 199.5 100Z" stroke="black" stroke-opacity="0.3"/>
</svg>
