<svg width="200" height="200" viewBox="0 0 200 200" fill="none" xmlns="http://www.w3.org/2000/svg">
<path d="M200 100C200 127.614 188.807 152.614 170.711 170.711C152.614 188.807 127.614 200 100 200C72.3858 200 47.3858 188.807 29.2893 170.711C11.1929 152.614 0 127.614 0 100C0 72.3858 11.1929 47.3858 29.2893 29.2893C47.3858 11.1929 72.3858 0 100 0C127.614 0 152.614 11.1929 170.711 29.2893C188.807 47.3858 200 72.3858 200 100Z" fill="#E5E5E5"/>
<path d="M99.2929 100L29.2902 170.003C11.4911 152.025 0.5 127.296 0.5 100C0.5 72.7035 11.4911 47.9751 29.2902 29.9973L99.2929 100ZM170.71 170.003L100.707 100L170.71 29.9973C188.509 47.9751 199.5 72.7035 199.5 100C199.5 127.296 188.509 152.025 170.71 170.003ZM170.003 29.2902L100 99.2929L29.9973 29.2902C47.9751 11.4911 72.7035 0.5 100 0.5C127.296 0.5 152.025 11.4911 170.003 29.2902ZM100 100.707L170.003 170.71C152.025 188.509 127.296 199.5 100 199.5C72.7035 199.5 47.9751 188.509 29.9973 170.71L100 100.707Z" stroke="black" stroke-opacity="0.3"/>
</svg>


